<svg width="113" height="25" viewBox="0 0 113 25" fill="none" xmlns="http://www.w3.org/2000/svg">
<path d="M50.4985 2.86811C51.5083 2.86811 52.5288 2.95405 53.56 3.12592C54.6127 3.27631 55.4506 3.48041 56.0736 3.73822C56.267 3.80267 56.3851 3.88861 56.4281 3.99603C56.4925 4.08196 56.5355 4.24309 56.557 4.47942L56.9759 8.95883C56.9759 9.02328 56.9222 9.06625 56.8148 9.08774C56.7074 9.10922 56.6322 9.07699 56.5892 8.99106C55.9877 7.22937 55.1283 5.88662 54.0111 4.9628C52.894 4.01751 51.5512 3.54486 49.9829 3.54486C48.522 3.54486 47.2115 3.94232 46.0513 4.73722C44.9127 5.51065 44.0103 6.62781 43.3443 8.08873C42.6998 9.54964 42.3776 11.2576 42.3776 13.2127C42.3776 15.1892 42.7106 16.9294 43.3766 18.4333C44.0641 19.9157 44.9986 21.0651 46.1802 21.8815C47.3833 22.6764 48.7583 23.0738 50.3052 23.0738C51.7876 23.0738 53.0336 22.6764 54.0434 21.8815C55.0531 21.0651 56.0092 19.7331 56.9115 17.8854C56.933 17.821 56.9974 17.7995 57.1048 17.821C57.2123 17.8425 57.266 17.8854 57.266 17.9499L56.7826 21.9459C56.7396 22.2037 56.6966 22.3756 56.6537 22.4615C56.6107 22.526 56.4925 22.6012 56.2992 22.6871C54.3227 23.3961 52.3247 23.7506 50.3052 23.7506C48.0064 23.7506 45.9439 23.3209 44.1178 22.4615C42.3131 21.5807 40.8952 20.3561 39.8639 18.7878C38.8327 17.2194 38.3171 15.4363 38.3171 13.4382C38.3171 11.3973 38.8434 9.58187 39.8962 7.99205C40.9704 6.38075 42.4313 5.12394 44.2789 4.22161C46.148 3.31928 48.2212 2.86811 50.4985 2.86811Z" fill="#1D1D1C"/>
<path d="M71.5313 21.6237C71.6172 21.6237 71.6709 21.6774 71.6924 21.7848C71.7354 21.8707 71.7139 21.9352 71.628 21.9781L68.3087 23.5572C68.2227 23.6002 68.1153 23.6217 67.9864 23.6217C67.6427 23.6217 67.3097 23.4391 66.9874 23.0738C66.6866 22.7086 66.4718 22.2145 66.3429 21.5914L64.9572 22.5582C64.463 22.9234 64.0011 23.192 63.5714 23.3639C63.1418 23.5142 62.6584 23.5894 62.1213 23.5894C61.1975 23.5894 60.4992 23.3853 60.0266 22.9771C59.5539 22.569 59.3176 21.9996 59.3176 21.2692C59.3176 20.6891 59.4573 20.2272 59.7366 19.8834C60.0158 19.5182 60.3596 19.2389 60.7678 19.0456C61.1975 18.8307 61.7883 18.5944 62.5402 18.3366L63.3459 18.0466L66.2462 16.9831V15.1462C66.2462 13.7712 66.128 12.7722 65.8917 12.1492C65.6769 11.5262 65.3009 11.2147 64.7638 11.2147C63.6252 11.2147 62.9806 12.0955 62.8302 13.8572C62.7658 14.5017 62.5724 14.9636 62.2502 15.2429C61.9494 15.5222 61.5197 15.6618 60.9611 15.6618C60.424 15.6618 60.0266 15.5544 59.7688 15.3396C59.5325 15.1033 59.4143 14.8025 59.4143 14.4373C59.4143 13.7927 59.7903 13.1804 60.5422 12.6004C61.2941 11.9988 62.1965 11.5154 63.2492 11.1502C64.3234 10.785 65.2687 10.6024 66.0851 10.6024C67.0304 10.6024 67.7931 10.9031 68.3731 11.5047C68.9747 12.0848 69.2755 12.9763 69.2755 14.1794V19.8834C69.2755 20.5065 69.3829 20.9899 69.5977 21.3336C69.834 21.6774 70.1563 21.8492 70.5645 21.8492C70.8653 21.8492 71.1768 21.774 71.499 21.6237H71.5313ZM66.2784 21.0436C66.2569 20.9577 66.2462 20.818 66.2462 20.6246V17.531L64.8605 18.1755C64.796 18.197 64.5812 18.2829 64.216 18.4333C63.8507 18.5622 63.5285 18.7878 63.2492 19.11C62.9914 19.4323 62.8625 19.8083 62.8625 20.2379C62.8625 20.7536 63.0236 21.1617 63.3459 21.4625C63.6896 21.7418 64.0763 21.8815 64.506 21.8815C64.8497 21.8815 65.2042 21.7633 65.5695 21.527L66.2784 21.0436Z" fill="#1D1D1C"/>
<path d="M80.5835 10.6024C81.0776 10.6024 81.5503 10.785 82.0015 11.1502C82.4741 11.4939 82.7104 11.9129 82.7104 12.407C82.7104 12.8582 82.5708 13.2341 82.2915 13.5349C82.0122 13.8142 81.647 13.9539 81.1958 13.9539C80.8735 13.9539 80.605 13.8894 80.3902 13.7605C80.1968 13.6316 79.9927 13.4382 79.7779 13.1804C79.5845 12.9656 79.4126 12.8152 79.2622 12.7293C79.1333 12.6219 78.9722 12.5681 78.7789 12.5681C78.564 12.5681 78.3277 12.6541 78.0699 12.826C77.8336 12.9763 77.4576 13.3093 76.942 13.825V20.7536C76.942 21.6129 77.1461 22.2037 77.5543 22.526C77.9625 22.8268 78.7144 22.9771 79.8101 22.9771C79.896 22.9771 79.939 23.0416 79.939 23.1705C79.939 23.2994 79.896 23.3639 79.8101 23.3639C79.0581 23.3639 78.4673 23.3531 78.0377 23.3316L75.4273 23.2994L73.526 23.3316C73.2038 23.3531 72.7633 23.3639 72.2047 23.3639C72.1403 23.3639 72.1081 23.2994 72.1081 23.1705C72.1081 23.0416 72.1403 22.9771 72.2047 22.9771C72.8708 22.9771 73.3219 22.8268 73.5582 22.526C73.7946 22.2037 73.9127 21.6129 73.9127 20.7536V14.6951C73.9127 14.0291 73.8268 13.5457 73.6549 13.2449C73.5045 12.9226 73.2575 12.7615 72.9137 12.7615C72.5485 12.7615 72.0329 12.9119 71.3669 13.2127H71.3024C71.238 13.2127 71.1843 13.159 71.1413 13.0515C71.1198 12.9441 71.1305 12.8797 71.1735 12.8582L75.6529 10.6668C75.7818 10.6238 75.857 10.6024 75.8785 10.6024C76.1148 10.6024 76.3297 10.8279 76.523 11.2791C76.7379 11.7088 76.8668 12.2996 76.9097 13.0515C77.7906 12.1492 78.5103 11.5154 79.0689 11.1502C79.649 10.785 80.1538 10.6024 80.5835 10.6024Z" fill="#1D1D1C"/>
<path d="M98.3461 21.2692C98.4105 21.2692 98.4643 21.3229 98.5072 21.4303C98.5717 21.5377 98.5824 21.6022 98.5394 21.6237L94.0923 23.7828L93.9311 23.815C93.7378 23.815 93.5552 23.6109 93.3833 23.2027C93.2329 22.7945 93.1362 22.2359 93.0932 21.527C91.5034 23.0309 89.8814 23.7828 88.2271 23.7828C87.2818 23.7828 86.4225 23.5357 85.649 23.0416C84.8971 22.5475 84.2955 21.8278 83.8444 20.8825C83.3932 19.9157 83.1676 18.7878 83.1676 17.4987C83.1676 15.8659 83.5436 14.5339 84.2955 13.5027C85.069 12.45 86.0143 11.6873 87.1314 11.2147C88.2701 10.742 89.4087 10.5057 90.5474 10.5057C91.3423 10.5057 92.1802 10.6346 93.061 10.8924V4.38274C93.061 3.6308 92.9858 3.0937 92.8354 2.77144C92.7065 2.44918 92.4702 2.28805 92.1265 2.28805C91.8472 2.28805 91.4497 2.40621 90.9341 2.64253H90.9019C90.8159 2.64253 90.7407 2.58882 90.6763 2.4814C90.6333 2.3525 90.6333 2.2773 90.6763 2.25582L95.4135 0.0322255L95.5424 0C95.6498 0 95.768 0.0537098 95.8969 0.16113C96.0258 0.247066 96.0903 0.333002 96.0903 0.418939V19.6256C96.0903 20.3561 96.1547 20.8717 96.2836 21.1725C96.434 21.4733 96.6703 21.6237 96.9926 21.6237C97.2719 21.6237 97.7123 21.5055 98.3139 21.2692H98.3461ZM89.9996 22.2359C91.0738 22.2359 92.0942 21.7848 93.061 20.8825V20.7213V12.8904C92.6743 12.3533 92.2339 11.9666 91.7398 11.7303C91.2671 11.4725 90.7085 11.3436 90.064 11.3436C88.9039 11.3436 88.0123 11.7518 87.3892 12.5681C86.7877 13.3631 86.4869 14.6628 86.4869 16.4675C86.4869 18.2721 86.8092 19.6901 87.4537 20.7213C88.0982 21.7311 88.9468 22.2359 89.9996 22.2359Z" fill="#1D1D1C"/>
<path d="M105.557 23.7828C104.225 23.7828 103.054 23.482 102.045 22.8805C101.056 22.2574 100.294 21.4303 99.7565 20.3991C99.2194 19.3463 98.9508 18.2077 98.9508 16.9831C98.9508 15.5866 99.3053 14.405 100.014 13.4382C100.723 12.45 101.626 11.7195 102.721 11.2469C103.817 10.7527 104.945 10.5057 106.105 10.5057C107.437 10.5057 108.597 10.8172 109.585 11.4402C110.574 12.0633 111.326 12.8904 111.841 13.9216C112.378 14.9314 112.647 16.0163 112.647 17.1765C112.647 18.4655 112.325 19.6149 111.68 20.6246C111.036 21.6129 110.165 22.3863 109.07 22.9449C107.996 23.5035 106.825 23.7828 105.557 23.7828ZM106.524 23.106C107.362 23.106 107.996 22.6979 108.425 21.8815C108.876 21.0436 109.102 19.8512 109.102 18.3044C109.102 16.8005 108.909 15.5115 108.522 14.4373C108.135 13.3631 107.63 12.5574 107.007 12.0203C106.384 11.4617 105.718 11.1824 105.009 11.1824C103.291 11.1824 102.431 12.7185 102.431 15.7907C102.431 17.2302 102.614 18.5085 102.979 19.6256C103.344 20.7213 103.838 21.5807 104.461 22.2037C105.085 22.8053 105.772 23.106 106.524 23.106Z" fill="#1D1D1C"/>
<path fill-rule="evenodd" clip-rule="evenodd" d="M10.6356 2.73938C10.6356 2.73938 11.7841 8.54365 13.7385 10.2714C13.9528 10.4612 14.2109 10.6466 14.5006 10.8265C14.792 10.6465 15.0517 10.461 15.2672 10.2714C17.2194 8.55404 18.37 2.73938 18.37 2.73938C18.37 2.73938 19.5185 8.54365 21.4728 10.2714C23.4251 11.9992 29.0035 13.374 29.0035 13.374C29.0035 13.374 23.4271 14.7591 21.4728 16.4765C19.5185 18.1939 18.37 24.0085 18.37 24.0085C18.37 24.0085 17.2215 18.2043 15.2672 16.4765C15.0527 16.2869 14.7946 16.1015 14.505 15.9218C14.2136 16.1017 13.954 16.2871 13.7385 16.4765C11.7841 18.1939 10.6356 24.0085 10.6356 24.0085C10.6356 24.0085 9.48712 18.2043 7.53279 16.4765C5.57846 14.7487 0 13.374 0 13.374C0 13.374 5.58054 11.9888 7.53279 10.2714C9.48504 8.55404 10.6356 2.73938 10.6356 2.73938Z" fill="#1D1D1C"/>
</svg>
